<svg width="386" height="91" viewBox="0 0 386 91" fill="none" xmlns="http://www.w3.org/2000/svg">
<path d="M56.814 59.1987C56.2443 59.9148 55.6103 60.5772 54.9197 61.1776C50.105 65.5637 45.2678 69.9387 40.408 74.3023C35.6216 78.6152 30.8013 82.945 26.0148 87.2917C24.6104 88.5822 22.8982 89.4906 21.0423 89.9302C23.0565 89.2919 24.8271 88.0525 26.1163 86.3784C29.9218 81.575 33.6935 76.7547 37.499 71.9682L48.9662 57.4228C49.4996 56.7482 49.9749 56.0296 50.3869 55.2748C52.5702 51.3792 53.2795 46.8283 52.3852 42.4531C51.4909 38.0779 49.0527 34.1703 45.5159 31.4439L17.3044 8.72935C16.7696 8.31009 16.2043 7.93131 15.6131 7.59615C14.8651 7.16081 14.0553 6.84146 13.2114 6.64901C13.9043 5.35468 14.8404 4.20615 15.9683 3.26634C17.8174 1.79687 20.1096 0.996948 22.4715 0.996948C24.8333 0.996948 27.1256 1.79687 28.9746 3.26634C29.5267 3.7084 30.0363 4.20102 30.4968 4.7378C38.9873 14.2769 47.444 23.8217 55.8668 33.3721C59.1037 36.8437 60.9811 41.3655 61.1551 46.1088C61.329 50.8521 59.7878 55.4993 56.814 59.1987Z" fill="#00DCD4"/>
<path d="M33.7106 52.0106L13.4992 70.3447C18.2124 64.3348 22.9481 58.3306 27.7064 52.332C28.3788 51.5802 28.8851 50.6951 29.1922 49.7344C29.4993 48.7737 29.6003 47.759 29.4885 46.7566C29.3768 45.7542 29.0549 44.7866 28.5438 43.9171C28.0327 43.0476 27.3439 42.2956 26.5225 41.7104L4.85651 24.239C3.77554 23.3946 2.8789 22.3379 2.22185 21.1339C1.5648 19.9299 1.16125 18.6041 1.03607 17.2382C0.910888 15.8723 1.06673 14.4952 1.49398 13.1919C1.92124 11.8885 2.61086 10.6864 3.52036 9.65967C4.72303 8.33266 6.26014 7.35314 7.97095 6.82353C9.68177 6.29392 11.5035 6.23368 13.2455 6.6491C13.0337 7.05782 12.8528 7.48184 12.7043 7.9176C12.6303 8.08034 12.5736 8.25041 12.5352 8.42499C12.4577 8.62293 12.3956 8.82648 12.3491 9.03387C12.3491 9.21992 12.3491 9.38905 12.2307 9.5751C11.9335 11.1913 12.0123 12.8543 12.461 14.4351C12.9098 16.016 13.7164 17.4724 14.8185 18.6914L34.3533 40.6787C35.1105 41.4367 35.6991 42.346 36.0806 43.3472C36.4621 44.3484 36.628 45.4188 36.5673 46.4885C36.5067 47.5581 36.2208 48.6029 35.7286 49.5545C35.2363 50.5061 34.5486 51.3431 33.7106 52.0106Z" fill="#E90066"/>
<path d="M50.3361 55.2748C49.9241 56.0297 49.4488 56.7482 48.9154 57.4228L37.4482 72.0359C33.6427 76.8224 29.871 81.6427 26.0655 86.4461C24.7763 88.1201 23.0057 89.3596 20.9915 89.9979H20.89C20.3337 90.1232 19.768 90.2024 19.1987 90.2347C18.3893 90.2762 17.5779 90.2251 16.7801 90.0824C14.8626 89.7044 13.0779 88.8296 11.6046 87.5454C10.5133 86.5438 9.64733 85.3216 9.06415 83.9598C8.48098 82.5981 8.1939 81.128 8.22196 79.6469C8.20466 79.3484 8.20466 79.0491 8.22196 78.7505C8.22196 78.4799 8.32344 78.2262 8.37418 77.9556C8.45208 77.6403 8.54808 77.3297 8.66171 77.0254C8.66171 76.8393 8.81393 76.6533 8.88158 76.4841C8.8785 76.4504 8.8785 76.4164 8.88158 76.3827C8.97948 76.147 9.09835 75.9205 9.23676 75.7061C9.59542 75.0724 10.0026 74.4673 10.4545 73.8964L13.482 70.3446L33.778 52.0951C34.6133 51.4276 35.2986 50.5916 35.7891 49.6415C36.2797 48.6914 36.5646 47.6486 36.6253 46.5811C36.6859 45.5136 36.5209 44.4452 36.1411 43.4457C35.7612 42.4462 35.175 41.5379 34.4207 40.7801L14.8858 18.7928C13.7568 17.5687 12.9289 16.0981 12.468 14.498C12.007 12.8978 11.9257 11.2122 12.2304 9.57505C12.2304 9.38901 12.315 9.21987 12.3488 9.03383C12.3952 8.82643 12.4574 8.62288 12.5349 8.42495C12.5733 8.25036 12.63 8.08029 12.704 7.91755C12.8525 7.48179 13.0334 7.05777 13.2452 6.64905C14.0891 6.8415 14.8988 7.16085 15.6469 7.59619C16.2381 7.93135 16.8034 8.31013 17.3382 8.72939L45.5158 31.444C49.0443 34.1774 51.4724 38.0883 52.3573 42.4631C53.2422 46.8378 52.5249 51.385 50.3361 55.2748Z" fill="#0A26EE"/>
<path d="M82.7252 13.871H75.2495V76.8054H82.7252V13.871Z" fill="#0A26EE"/>
<path d="M126.852 32.5941V39.7823C124.95 37.4173 122.518 35.5329 119.753 34.2812C116.989 33.0296 113.968 32.4459 110.936 32.5772C98.7248 32.5772 89.5239 42.0318 89.5239 54.5645C89.5239 67.0973 98.7248 76.8225 110.936 76.8225C113.971 76.9498 116.993 76.3608 119.758 75.1032C122.523 73.8456 124.953 71.9547 126.852 69.5836V76.8055H134.327V32.5772L126.852 32.5941ZM111.63 69.9895C103.173 69.9895 96.932 63.3595 96.932 54.5645C96.8495 52.5878 97.1693 50.6148 97.872 48.7653C98.5747 46.9158 99.6456 45.2282 101.02 43.8049C102.394 42.3816 104.043 41.2522 105.867 40.4852C107.691 39.7181 109.651 39.3294 111.63 39.3425C113.641 39.2987 115.64 39.6624 117.506 40.4119C119.373 41.1613 121.069 42.281 122.491 43.7033C123.913 45.1256 125.033 46.8212 125.782 48.6878C126.532 50.5545 126.895 52.5535 126.852 54.5645C126.879 56.5791 126.505 58.579 125.753 60.4482C125.001 62.3174 123.886 64.0187 122.472 65.4535C121.057 66.8884 119.372 68.0281 117.514 68.8068C115.656 69.5854 113.661 69.9874 111.647 69.9895H111.63Z" fill="#0A26EE"/>
<path d="M165.583 32.5771C162.542 32.4638 159.517 33.0677 156.752 34.3399C153.987 35.6121 151.56 37.517 149.668 39.9006V13.871H142.192V76.8054H149.668V69.6511C151.578 72.0048 154.012 73.8791 156.775 75.1243C159.539 76.3695 162.555 76.951 165.583 76.8223C177.778 76.8223 186.996 67.2663 186.996 54.6152C186.996 41.964 177.778 32.5771 165.583 32.5771ZM164.873 69.9894C162.861 69.9895 160.869 69.5907 159.013 68.8163C157.156 68.0418 155.471 66.9069 154.055 65.4773C152.64 64.0476 151.522 62.3515 150.766 60.4871C150.01 58.6227 149.631 56.6269 149.651 54.6152C149.61 52.6048 149.975 50.6068 150.725 48.7413C151.476 46.8757 152.595 45.1811 154.017 43.7592C155.439 42.3374 157.134 41.2177 158.999 40.4674C160.865 39.7171 162.863 39.3517 164.873 39.3932C166.849 39.3847 168.807 39.7767 170.628 40.5457C172.448 41.3146 174.094 42.4444 175.466 43.867C176.838 45.2895 177.908 46.9753 178.61 48.8226C179.313 50.6699 179.634 52.6404 179.554 54.6152C179.554 63.3932 173.245 69.9894 164.873 69.9894Z" fill="#0A26EE"/>
<path d="M214.108 32.5772C211.157 32.4808 208.217 32.984 205.466 34.0562C202.715 35.1285 200.21 36.7475 198.103 38.8154C195.995 40.8834 194.329 43.3572 193.205 46.0875C192.081 48.8177 191.522 51.7475 191.563 54.6998C191.522 57.6521 192.081 60.5819 193.205 63.3121C194.329 66.0424 195.995 68.5162 198.103 70.5842C200.21 72.6521 202.715 74.2711 205.466 75.3434C208.217 76.4156 211.157 76.9188 214.108 76.8224C226.979 76.8224 236.67 67.3171 236.67 54.6998C236.67 42.0825 226.979 32.5772 214.108 32.5772ZM214.108 69.7865C212.113 69.8282 210.131 69.4652 208.28 68.7195C206.43 67.9737 204.749 66.8606 203.341 65.4475C201.933 64.0343 200.825 62.3504 200.086 60.4973C199.346 58.6443 198.99 56.6606 199.038 54.666C198.971 52.6434 199.31 50.6278 200.038 48.7393C200.765 46.8508 201.865 45.1278 203.272 43.6731C204.678 42.2184 206.363 41.0615 208.227 40.2714C210.09 39.4814 212.093 39.0742 214.117 39.0742C216.14 39.0742 218.143 39.4814 220.006 40.2714C221.87 41.0615 223.555 42.2184 224.962 43.6731C226.368 45.1278 227.468 46.8508 228.195 48.7393C228.923 50.6278 229.262 52.6434 229.195 54.666C229.248 56.6648 228.895 58.6536 228.156 60.5118C227.418 62.37 226.309 64.0588 224.899 65.4759C223.488 66.8929 221.804 68.0087 219.949 68.7555C218.094 69.5023 216.107 69.8645 214.108 69.8203V69.7865Z" fill="#0A26EE"/>
<path d="M309.516 32.5771V58.6406C309.516 69.5158 301.769 76.8224 290.234 76.8224C278.699 76.8224 270.953 69.6173 270.953 58.8943V32.5771H278.378V57.6258C278.378 65.1184 282.911 69.7695 290.217 69.7695C297.524 69.7695 302.057 65.1184 302.057 57.6258V32.5941L309.516 32.5771Z" fill="#0A26EE"/>
<path d="M385.034 50.0486V76.8055H377.558V51.7399C377.558 44.1797 373.33 39.6807 366.243 39.6807C364.645 39.606 363.048 39.8611 361.553 40.4303C360.058 40.9995 358.695 41.8706 357.551 42.9892C356.407 44.1079 355.506 45.4501 354.903 46.9324C354.301 48.4146 354.01 50.0051 354.049 51.6046V76.8055H346.573V51.7399C346.573 44.1797 342.429 39.6807 335.512 39.6807C333.882 39.6054 332.254 39.8678 330.73 40.4514C329.206 41.0351 327.819 41.9275 326.657 43.0726C325.494 44.2177 324.581 45.5907 323.974 47.1056C323.368 48.6204 323.081 50.2442 323.131 51.8752V76.8055H315.588V32.5771H323.064V39.0719C324.626 36.9752 326.673 35.2879 329.029 34.154C331.385 33.0201 333.981 32.4733 336.594 32.5602C343.782 32.5602 349.212 35.5877 351.952 41.0169C353.51 38.3601 355.755 36.1725 358.452 34.6843C361.149 33.1961 364.197 32.4623 367.275 32.5602C378.167 32.5771 385.034 39.427 385.034 50.0486Z" fill="#0A26EE"/>
<path d="M259.317 33.3382C257.251 33.2655 255.204 33.7442 253.385 34.7251C251.565 35.7061 250.04 37.1539 248.966 38.9196V32.5771H241.507V76.8055H248.966V52.4165C248.966 43.4524 254.209 40.2389 259.114 40.2389C260.855 40.2276 262.581 40.567 264.188 41.2368H264.306L266.928 35.1987C264.521 34.1344 261.944 33.5045 259.317 33.3382Z" fill="#0A26EE"/>
</svg>
